PathFileType	4	(X/Y/Z)	 2.8Hzhigh3min.trc
DataRate	CameraRate	NumFrames	NumMarkers	Units	OrigDataRate	OrigDataStartFrame	OrigNumFrames
200	200	8	43	m	200	126	1000
Frame#	Time	C7			LSH			RSH			MAN			RASI			LASI			HIPR			HIPL			RPSI			LPSI			COX			RTHI1			RTHI2			RTHI3			RTHI4			RLKN			RMKN			RSHA1			RSHA2			RSHA3			RSHA4			RLMAL			RMMAL			RHEEL			RMET5			RMET1			RTOE			LTHI1			LTHI2			LTHI3			LTHI4			LLKN			LMKN			LSHA1			LSHA2			LSHA3			LSHA4			LLMAL			LMMAL			LHEEL			LMET5			LMET1			LTOE			
		X1	Y1	Z1	X2	Y2	Z2	X3	Y3	Z3	X4	Y4	Z4	X5	Y5	Z5	X6	Y6	Z6	X7	Y7	Z7	X8	Y8	Z8	X9	Y9	Z9	X10	Y10	Z10	X11	Y11	Z11	X12	Y12	Z12	X13	Y13	Z13	X14	Y14	Z14	X15	Y15	Z15	X16	Y16	Z16	X17	Y17	Z17	X18	Y18	Z18	X19	Y19	Z19	X20	Y20	Z20	X21	Y21	Z21	X22	Y22	Z22	X23	Y23	Z23	X24	Y24	Z24	X25	Y25	Z25	X26	Y26	Z26	X27	Y27	Z27	X28	Y28	Z28	X29	Y29	Z29	X30	Y30	Z30	X31	Y31	Z31	X32	Y32	Z32	X33	Y33	Z33	X34	Y34	Z34	X35	Y35	Z35	X36	Y36	Z36	X37	Y37	Z37	X38	Y38	Z38	X39	Y39	Z39	X40	Y40	Z40	X41	Y41	Z41	X42	Y42	Z42	X43	Y43	Z43	
126	0.6300	-0.271206	1.460979	-0.511302	-0.199223	1.452846	-0.676361	-0.185538	1.438795	-0.368853	-0.147278	1.401327	-0.522843	-0.129508	0.968489	-0.405516	-0.147778	0.975271	-0.650107	-0.172877	1.030540	-0.382882	-0.195194	1.043361	-0.667824	-0.291489	1.020019	-0.484877	-0.299756	1.018948	-0.549532	-0.300914	1.016347	-0.517500	-0.235295	0.789551	-0.348980	-0.222038	0.731136	-0.348307	-0.158390	0.741389	-0.345850	-0.163117	0.802952	-0.346046	-0.218121	0.541400	-0.368926	-0.207536	0.525778	-0.492758	-0.312390	0.390127	-0.371465	-0.313933	0.349453	-0.379745	-0.264217	0.338254	-0.358157	-0.254999	0.381111	-0.352625	-0.297292	0.195176	-0.384935	-0.272637	0.196512	-0.458840	-0.346553	0.194136	-0.423645	-0.223832	0.092912	-0.366751	-0.191198	0.095300	-0.430006	-0.169993	0.083750	-0.426428	-0.256116	0.806181	-0.700820	-0.239848	0.746852	-0.705199	-0.175814	0.758764	-0.709995	-0.184776	0.818096	-0.707158	-0.222944	0.528404	-0.689976	-0.209342	0.527736	-0.571865	-0.323855	0.359559	-0.682239	-0.331445	0.321135	-0.673209	-0.272598	0.310691	-0.692199	-0.272759	0.354238	-0.700123	-0.311227	0.202554	-0.674749	-0.293970	0.200904	-0.599073	-0.360289	0.209704	-0.624376	-0.250665	0.098815	-0.683383	-0.219429	0.097839	-0.619703	-0.201569	0.084666	-0.622256	
127	0.6350	-0.270992	1.459426	-0.511302	-0.199153	1.450748	-0.676653	-0.185503	1.436576	-0.368545	-0.147214	1.399503	-0.522818	-0.130273	0.967004	-0.405450	-0.148181	0.973540	-0.650208	-0.173758	1.028893	-0.382839	-0.195563	1.041403	-0.667865	-0.292358	1.017611	-0.484859	-0.300446	1.016568	-0.549558	-0.301731	1.013971	-0.517539	-0.235023	0.787673	-0.348543	-0.221434	0.729345	-0.347944	-0.157830	0.739953	-0.345894	-0.162921	0.801491	-0.346030	-0.216723	0.539698	-0.368850	-0.206700	0.524150	-0.492742	-0.311940	0.389098	-0.371187	-0.313837	0.348563	-0.379523	-0.264078	0.336842	-0.358318	-0.254496	0.379558	-0.352828	-0.298162	0.194069	-0.385282	-0.273913	0.195441	-0.459314	-0.347786	0.192979	-0.423802	-0.224470	0.092304	-0.367289	-0.192141	0.094612	-0.430652	-0.170869	0.083205	-0.427146	-0.255945	0.803745	-0.700783	-0.239355	0.744508	-0.705178	-0.175398	0.756781	-0.710136	-0.184706	0.816067	-0.707287	-0.221883	0.526846	-0.690378	-0.208518	0.526571	-0.572096	-0.323934	0.358661	-0.682496	-0.331779	0.320241	-0.673486	-0.272967	0.309549	-0.692615	-0.272916	0.353076	-0.700515	-0.311986	0.201523	-0.675040	-0.294630	0.199857	-0.599299	-0.361091	0.208537	-0.624649	-0.251032	0.098212	-0.683863	-0.219760	0.097302	-0.620198	-0.201817	0.084342	-0.622813	
128	0.6400	-0.270763	1.457612	-0.511312	-0.198965	1.448424	-0.676879	-0.185487	1.434146	-0.368287	-0.147143	1.397431	-0.522784	-0.131058	0.965269	-0.405383	-0.148573	0.971579	-0.650286	-0.174653	1.027021	-0.382799	-0.195913	1.039232	-0.667893	-0.293253	1.014979	-0.484892	-0.301163	1.013940	-0.549636	-0.302569	1.011342	-0.517630	-0.234754	0.785491	-0.348125	-0.220828	0.727256	-0.347595	-0.157273	0.738219	-0.346020	-0.162726	0.799733	-0.346122	-0.215376	0.537712	-0.368765	-0.205778	0.522239	-0.492680	-0.311475	0.387786	-0.370928	-0.313718	0.347388	-0.379302	-0.263926	0.335177	-0.358464	-0.253996	0.377741	-0.353050	-0.298999	0.192730	-0.385597	-0.275104	0.194121	-0.459745	-0.348953	0.191634	-0.423949	-0.225226	0.091378	-0.367759	-0.193116	0.093615	-0.431212	-0.171789	0.082360	-0.427783	-0.255839	0.801179	-0.700764	-0.238978	0.742026	-0.705135	-0.175089	0.754594	-0.710287	-0.184685	0.813836	-0.707456	-0.220881	0.525034	-0.690808	-0.207679	0.525125	-0.572404	-0.323985	0.357495	-0.682774	-0.332003	0.319087	-0.673718	-0.273292	0.308129	-0.693046	-0.273039	0.351654	-0.700924	-0.312721	0.200247	-0.675352	-0.295246	0.198557	-0.599555	-0.361861	0.207131	-0.624936	-0.251377	0.097411	-0.684393	-0.220046	0.096562	-0.620756	-0.202027	0.083811	-0.623441	
129	0.6450	-0.270525	1.455532	-0.511339	-0.198658	1.445877	-0.677039	-0.185492	1.431514	-0.368081	-0.147062	1.395108	-0.522740	-0.131857	0.963285	-0.405318	-0.148953	0.969392	-0.650335	-0.175568	1.024922	-0.382757	-0.196262	1.036850	-0.667912	-0.294158	1.012149	-0.484983	-0.301902	1.011073	-0.549771	-0.303410	1.008482	-0.517772	-0.234477	0.783014	-0.347742	-0.220213	0.724874	-0.347285	-0.156716	0.736190	-0.346220	-0.162522	0.797671	-0.346303	-0.214084	0.535449	-0.368677	-0.204798	0.520051	-0.492587	-0.310999	0.386173	-0.370688	-0.313583	0.345894	-0.379108	-0.263766	0.333255	-0.358607	-0.253514	0.375679	-0.353244	-0.299823	0.191160	-0.385888	-0.276242	0.192550	-0.460138	-0.350078	0.190101	-0.424094	-0.226080	0.090168	-0.368180	-0.194183	0.092299	-0.431731	-0.172827	0.081186	-0.428343	-0.255799	0.798497	-0.700767	-0.238715	0.739410	-0.705080	-0.174886	0.752216	-0.710438	-0.184719	0.811427	-0.707658	-0.219937	0.522982	-0.691267	-0.206794	0.523380	-0.572799	-0.323984	0.356056	-0.683077	-0.332090	0.317629	-0.673882	-0.273573	0.306440	-0.693491	-0.273119	0.349958	-0.701342	-0.313433	0.198721	-0.675679	-0.295841	0.196997	-0.599840	-0.362604	0.205472	-0.625237	-0.251685	0.096349	-0.684939	-0.220308	0.095558	-0.621354	-0.202185	0.083042	-0.624103	
130	0.6500	-0.270280	1.453190	-0.511391	-0.198263	1.443119	-0.677157	-0.185518	1.428683	-0.367929	-0.146976	1.392522	-0.522688	-0.132668	0.961052	-0.405254	-0.149325	0.966977	-0.650351	-0.176500	1.022593	-0.382710	-0.196619	1.034252	-0.667920	-0.295055	1.009147	-0.485130	-0.302645	1.008001	-0.549946	-0.304247	1.005426	-0.517957	-0.234179	0.780256	-0.347417	-0.219588	0.722202	-0.347037	-0.156148	0.733864	-0.346486	-0.162298	0.795315	-0.346556	-0.212833	0.532918	-0.368593	-0.203786	0.517593	-0.492476	-0.310497	0.384243	-0.370508	-0.313438	0.344098	-0.378928	-0.263607	0.331068	-0.358756	-0.253062	0.373381	-0.353404	-0.300696	0.189355	-0.386178	-0.277357	0.190736	-0.460508	-0.351183	0.188378	-0.424240	-0.227068	0.088624	-0.368526	-0.195318	0.090661	-0.432164	-0.173935	0.079689	-0.428816	-0.255823	0.795697	-0.700791	-0.238553	0.736668	-0.705025	-0.174779	0.749666	-0.710595	-0.184806	0.808850	-0.707886	-0.219055	0.520697	-0.691738	-0.205842	0.521323	-0.573272	-0.323928	0.354350	-0.683405	-0.332057	0.315867	-0.673972	-0.273806	0.304489	-0.693948	-0.273146	0.347996	-0.701769	-0.314127	0.196945	-0.676027	-0.296439	0.195182	-0.600149	-0.363327	0.203567	-0.625553	-0.251969	0.095031	-0.685511	-0.220538	0.094337	-0.621975	-0.202321	0.082045	-0.624810	
131	0.6550	-0.270029	1.450594	-0.511465	-0.197789	1.440150	-0.677237	-0.185568	1.425653	-0.367829	-0.146880	1.389681	-0.522627	-0.133484	0.958569	-0.405191	-0.149686	0.964330	-0.650333	-0.177448	1.020025	-0.382657	-0.196989	1.031438	-0.667918	-0.295930	1.006000	-0.485326	-0.303381	1.004751	-0.550161	-0.305062	1.002203	-0.518180	-0.233856	0.777218	-0.347169	-0.218945	0.719256	-0.346871	-0.155569	0.731254	-0.346806	-0.162050	0.792663	-0.346863	-0.211614	0.530122	-0.368514	-0.202767	0.514863	-0.492352	-0.310002	0.382045	-0.370343	-0.313278	0.342012	-0.378764	-0.263456	0.328604	-0.358923	-0.252635	0.370849	-0.353546	-0.301619	0.187316	-0.386453	-0.278480	0.188667	-0.460848	-0.352283	0.186457	-0.424384	-0.228172	0.086781	-0.368808	-0.196538	0.088747	-0.432537	-0.175140	0.077928	-0.429207	-0.255906	0.792773	-0.700827	-0.238475	0.733797	-0.704976	-0.174753	0.746952	-0.710761	-0.184942	0.806114	-0.708132	-0.218227	0.518186	-0.692235	-0.204808	0.518948	-0.573814	-0.323812	0.352386	-0.683751	-0.331915	0.313821	-0.673995	-0.273991	0.302265	-0.694402	-0.273121	0.345757	-0.702187	-0.314802	0.194909	-0.676388	-0.297043	0.193114	-0.600482	-0.364035	0.201412	-0.625881	-0.252268	0.093448	-0.686103	-0.220758	0.092834	-0.622634	-0.202438	0.080729	-0.625528	
132	0.6600	-0.269775	1.447748	-0.511557	-0.197253	1.436968	-0.677285	-0.185640	1.422421	-0.367782	-0.146785	1.386571	-0.522561	-0.134313	0.955828	-0.405144	-0.150042	0.961443	-0.650278	-0.178410	1.017216	-0.382603	-0.197369	1.028407	-0.667908	-0.296768	1.002715	-0.485559	-0.304094	1.001343	-0.550407	-0.305839	0.998836	-0.518434	-0.233508	0.773920	-0.347006	-0.218288	0.716046	-0.346792	-0.154974	0.728364	-0.347166	-0.161774	0.789739	-0.347206	-0.210405	0.527064	-0.368447	-0.201760	0.511859	-0.492224	-0.309503	0.379582	-0.370211	-0.313130	0.339664	-0.378621	-0.263325	0.325874	-0.359114	-0.252250	0.368082	-0.353659	-0.302587	0.185059	-0.386703	-0.279635	0.186357	-0.461175	-0.353402	0.184333	-0.424529	-0.229385	0.084754	-0.369086	-0.197797	0.086570	-0.432866	-0.176398	0.075878	-0.429546	-0.256042	0.789714	-0.700866	-0.238466	0.730784	-0.704942	-0.174791	0.744074	-0.710931	-0.185119	0.803215	-0.708379	-0.217453	0.515451	-0.692745	-0.203684	0.516245	-0.574408	-0.323637	0.350168	-0.684107	-0.331682	0.311503	-0.673954	-0.274133	0.299766	-0.694851	-0.273045	0.343248	-0.702596	-0.315464	0.192617	-0.676756	-0.297660	0.190790	-0.600841	-0.364725	0.199020	-0.626213	-0.252596	0.091586	-0.686700	-0.220984	0.091046	-0.623304	-0.202574	0.079080	-0.626256	
133	0.6650	-0.269514	1.444665	-0.511665	-0.196669	1.433573	-0.677308	-0.185727	1.418987	-0.367784	-0.146684	1.383194	-0.522485	-0.135158	0.952823	-0.405110	-0.150396	0.958311	-0.650188	-0.179383	1.014159	-0.382545	-0.197764	1.025163	-0.667892	-0.297562	0.999304	-0.485818	-0.304773	0.997798	-0.550672	-0.306577	0.995344	-0.518702	-0.233130	0.770375	-0.346937	-0.217616	0.712589	-0.346794	-0.154366	0.725211	-0.347554	-0.161477	0.786548	-0.347579	-0.209186	0.523751	-0.368396	-0.200773	0.508586	-0.492096	-0.309007	0.376851	-0.370090	-0.313006	0.337065	-0.378502	-0.263214	0.322892	-0.359296	-0.251881	0.365069	-0.353731	-0.303644	0.182583	-0.386932	-0.280840	0.183818	-0.461499	-0.354558	0.182007	-0.424671	-0.230654	0.082473	-0.369298	-0.199101	0.084148	-0.433154	-0.177706	0.073525	-0.429826	-0.256213	0.786508	-0.700895	-0.238508	0.727619	-0.704922	-0.174878	0.741034	-0.711103	-0.185329	0.800157	-0.708615	-0.216705	0.512493	-0.693255	-0.202481	0.513218	-0.575037	-0.323412	0.347689	-0.684470	-0.331462	0.308931	-0.673981	-0.274241	0.297011	-0.695285	-0.272935	0.340471	-0.702995	-0.316120	0.190069	-0.677129	-0.298274	0.188209	-0.601209	-0.365393	0.196397	-0.626535	-0.252995	0.089340	-0.687271	-0.221259	0.088891	-0.623972	-0.202790	0.077040	-0.626994	
